<?xml version="1.0" encoding="UTF-8" standalone="no"?>
<!-- Created with Inkscape (http://www.inkscape.org/) -->
<svg
   xmlns:svg="http://www.w3.org/2000/svg"
   xmlns="http://www.w3.org/2000/svg"
   version="1.0"
   width="825"
   height="600"
   id="svg1">
  <defs
     id="defs1" />
  <style
     type="text/css"
     id="style4" />
  <g
     transform="matrix(100,0,0,-100,575,1525)"
     id="Burkina_Faso">
    <path
       d="M 0.23574,14.88607 L 0.22809,14.86924 L 0.20401,14.84286 L 0.19703,14.83086 L 0.19088,14.8067 L 0.19314,14.79156 L 0.19634,14.77712 L 0.20261,14.76271 L 0.20243,14.75629 L 0.20059,14.75144 L 0.19872,14.72341 L 0.18884,14.64204 L 0.18439,14.61282 L 0.18002,14.60107 L 0.17759,14.58268 L 0.16625,14.53343 L 0.16799,14.52335 L 0.17677,14.49242 L 0.18226,14.48534 L 0.19129,14.47738 L 0.20155,14.46368 L 0.22019,14.44341 L 0.22418,14.43906 L 0.26658,14.39049 L 0.27541,14.37839 L 0.28897,14.36403 L 0.32293,14.36201 L 0.33071,14.36115 L 0.34017,14.35755 L 0.35179,14.34914 L 0.36299,14.33568 L 0.36735,14.32078 L 0.37005,14.30817 L 0.38228,14.28368 L 0.39138,14.26584 L 0.39126,14.26333 L 0.39062,14.244 L 0.37814,14.21473 L 0.36703,14.19167 L 0.36308,14.18589 L 0.35924,14.16656 L 0.35703,14.14839 L 0.35735,14.13921 L 0.36335,14.12616 L 0.38191,14.10265 L 0.38433,14.09576 L 0.38407,14.07049 L 0.38746,14.05904 L 0.39879,14.02786 L 0.41046,14.01096 L 0.42209,13.99956 L 0.4434,13.98387 L 0.45028,13.97771 L 0.4534,13.9697 L 0.45045,13.95658 L 0.45072,13.95267 L 0.45521,13.94994 L 0.46343,13.95184 L 0.47256,13.95858 L 0.4805,13.96577 L 0.48321,13.95131 L 0.48045,13.94256 L 0.47344,13.93722 L 0.47161,13.92986 L 0.47336,13.91769 L 0.47648,13.91035 L 0.4919,13.89416 L 0.49735,13.88983 L 0.50467,13.88644 L 0.51247,13.88037 L 0.52077,13.87392 L 0.52624,13.86638 L 0.52686,13.84708 L 0.53044,13.84067 L 0.54037,13.83408 L 0.55121,13.8314 L 0.55501,13.82775 L 0.56422,13.823 L 0.57817,13.81299 L 0.58196,13.80933 L 0.58466,13.79488 L 0.58942,13.78756 L 0.60217,13.78098 L 0.61321,13.77885 L 0.61366,13.78635 L 0.62048,13.78663 L 0.621,13.77997 L 0.61937,13.77766 L 0.62529,13.77126 L 0.62557,13.76529 L 0.62118,13.75584 L 0.59973,13.73041 L 0.60029,13.71892 L 0.6053,13.70975 L 0.61902,13.69905 L 0.63552,13.69343 L 0.65597,13.69334 L 0.66773,13.69365 L 0.67143,13.69348 L 0.69031,13.69265 L 0.74203,13.69254 L 0.76837,13.69202 L 0.77117,13.69264 L 0.7726,13.69296 L 0.7726,13.69205 L 0.78772,13.68249 L 0.79692,13.67726 L 0.78449,13.67351 L 0.77844,13.66428 L 0.77945,13.6544 L 0.78164,13.64269 L 0.82736,13.62666 L 0.83254,13.62463 L 0.84642,13.62379 L 0.85652,13.62408 L 0.86215,13.62527 L 0.87579,13.62466 L 0.89742,13.62411 L 0.9071,13.61865 L 0.91277,13.61271 L 0.94089,13.5892 L 0.95858,13.58057 L 0.97365,13.57584 L 0.98777,13.57155 L 0.99815,13.56609 L 1.00595,13.55832 L 1.01,13.54869 L 1.01481,13.53102 L 1.01914,13.5145 L 1.02436,13.50648 L 1.0423,13.49232 L 1.04492,13.48614 L 1.04518,13.482 L 1.0436,13.47027 L 1.03764,13.44518 L 1.0588,13.44231 L 1.0769,13.44012 L 1.11581,13.41273 L 1.13444,13.40019 L 1.14364,13.39311 L 1.15327,13.39224 L 1.16734,13.396 L 1.17791,13.39674 L 1.19789,13.39247 L 1.21366,13.38611 L 1.22164,13.3873 L 1.23054,13.3924 L 1.24176,13.40326 L 1.24575,13.40236 L 1.26536,13.38016 L 1.26915,13.37328 L 1.27341,13.368 L 1.28097,13.35862 L 1.28297,13.3522 L 1.27915,13.3499 L 1.25247,13.33949 L 1.23646,13.33324 L 1.2313,13.33369 L 1.22092,13.35045 L 1.22065,13.36079 L 1.21687,13.37067 L 1.21075,13.37386 L 1.2023,13.37385 L 1.19831,13.37084 L 1.19739,13.36648 L 1.2012,13.34649 L 1.19465,13.33934 L 1.19417,13.32974 L 1.19399,13.32601 L 1.1865,13.31702 L 1.18251,13.31678 L 1.17877,13.31896 L 1.17663,13.32021 L 1.14868,13.3222 L 1.14466,13.33139 L 1.14115,13.32678 L 1.13763,13.327 L 1.13292,13.33135 L 1.12212,13.33156 L 1.11922,13.33098 L 1.11625,13.33038 L 1.11251,13.32761 L 1.11017,13.32347 L 1.10434,13.32539 L 1.09326,13.33263 L 1.08712,13.33743 L 1.06923,13.3463 L 1.05536,13.34921 L 1.04287,13.35488 L 1.03509,13.36036 L 1.02871,13.36699 L 1.01882,13.37222 L 0.99885,13.37325 L 0.99182,13.37092 L 0.9907,13.32355 L 0.9917,13.31368 L 0.99154,13.26219 L 0.99215,13.20242 L 0.9921,13.13346 L 0.99155,13.10795 L 0.99181,13.09641 L 0.9925,13.0668 L 0.99278,13.05921 L 1.03783,13.05832 L 1.0519,13.05794 L 1.0658,13.0479 L 1.09504,13.02093 L 1.10022,13.0182 L 1.16641,12.96474 L 1.17466,12.9572 L 1.19068,12.94279 L 1.19068,12.94372 L 1.19552,12.94039 L 1.20197,12.93595 L 1.21023,12.9268 L 1.22647,12.91331 L 1.27403,12.87469 L 1.29262,12.85892 L 1.30274,12.85252 L 1.30668,12.84875 L 1.30668,12.84875 L 1.31781,12.8381 L 1.32721,12.83194 L 1.34016,12.81912 L 1.37216,12.79375 L 1.38816,12.77933 L 1.40509,12.76607 L 1.41049,12.76334 L 1.43331,12.74342 L 1.454,12.72673 L 1.50948,12.68119 L 1.52429,12.66884 L 1.53157,12.6638 L 1.54426,12.65189 L 1.56329,12.63748 L 1.57011,12.63129 L 1.66498,12.62634 L 1.68325,12.62457 L 1.68957,12.62597 L 1.70008,12.62485 L 1.70011,12.62485 L 1.71019,12.62373 L 1.7365,12.62364 L 1.74555,12.6236 L 1.77623,12.62209 L 1.7945,12.62168 L 1.80598,12.61987 L 1.82105,12.61929 L 1.82136,12.61928 L 1.82165,12.61926 L 1.82215,12.61924 L 1.828,12.61902 L 1.84603,12.61906 L 1.85798,12.6168 L 1.86383,12.61636 L 1.87015,12.61821 L 1.8739,12.61822 L 1.91096,12.6813 L 1.92239,12.7018 L 1.92472,12.70457 L 1.92986,12.70383 L 1.93105,12.70366 L 1.94887,12.69749 L 1.96008,12.71085 L 1.96803,12.71708 L 1.97784,12.72906 L 1.98629,12.73878 L 1.9876,12.73896 L 2.00517,12.73045 L 2.01313,12.72838 L 2.03368,12.72788 L 2.03942,12.72775 L 2.06139,12.72722 L 2.06296,12.72672 L 2.071,12.72421 L 2.0799,12.71754 L 2.08458,12.71639 L 2.09869,12.72653 L 2.11145,12.69299 L 2.11969,12.67139 L 2.12275,12.66519 L 2.14056,12.65556 L 2.1483,12.65028 L 2.1483,12.65121 L 2.16869,12.64249 L 2.19564,12.63013 L 2.20526,12.62347 L 2.21441,12.61107 L 2.21676,12.6044 L 2.21631,12.59383 L 2.21705,12.5713 L 2.21662,12.54716 L 2.21736,12.52508 L 2.21642,12.52508 L 2.22815,12.51107 L 2.2544,12.4842 L 2.26097,12.47478 L 2.26122,12.46329 L 2.26241,12.44994 L 2.26687,12.43616 L 2.27427,12.42838 L 2.27263,12.42631 L 2.26116,12.42448 L 2.25718,12.41666 L 2.2532,12.4153 L 2.24829,12.42013 L 2.22723,12.4229 L 2.22395,12.42268 L 2.21552,12.41418 L 2.20219,12.42247 L 2.18991,12.42176 L 2.18651,12.42156 L 2.1816,12.4241 L 2.17411,12.42433 L 2.16451,12.41929 L 2.15515,12.41998 L 2.15361,12.41928 L 2.15211,12.4186 L 2.14345,12.40896 L 2.13502,12.4016 L 2.12613,12.39861 L 2.11747,12.39172 L 2.11325,12.38597 L 2.11138,12.38069 L 2.11045,12.38031 L 2.1074,12.37909 L 2.10412,12.37977 L 2.09173,12.39381 L 2.08799,12.39565 L 2.07301,12.39198 L 2.07067,12.38922 L 2.06926,12.38163 L 2.06692,12.38002 L 2.06622,12.37657 L 2.06762,12.3699 L 2.06317,12.36369 L 2.06265,12.36163 L 2.06191,12.35873 L 2.0606,12.35358 L 2.05947,12.35238 L 2.06252,12.34847 L 2.06487,12.34641 L 2.0719,12.33791 L 2.0895,12.31104 L 2.10146,12.29704 L 2.11202,12.28165 L 2.13054,12.2587 L 2.13547,12.24997 L 2.14835,12.23503 L 2.15516,12.2247 L 2.18421,12.18773 L 2.24863,12.10274 L 2.25894,12.08987 L 2.32073,12.0106 L 2.33945,11.98533 L 2.34671,11.97684 L 2.36238,11.95454 L 2.37174,11.94144 L 2.38203,11.93179 L 2.39583,11.91203 L 2.40539,11.90161 L 2.40475,11.89794 L 2.40241,11.8961 L 2.39714,11.89546 L 2.39446,11.88922 L 2.39973,11.87943 L 2.40238,11.8745 L 2.40261,11.87058 L 2.40026,11.86713 L 2.38905,11.86279 L 2.37923,11.85406 L 2.37548,11.84441 L 2.3743,11.83705 L 2.37546,11.83337 L 2.37803,11.83084 L 2.38247,11.82992 L 2.38316,11.82761 L 2.38106,11.82371 L 2.37007,11.81821 L 2.36773,11.81338 L 2.37006,11.80694 L 2.36818,11.80212 L 2.3709,11.79928 L 2.37215,11.79797 L 2.37237,11.79314 L 2.37089,11.79288 L 2.34995,11.78927 L 2.34038,11.78536 L 2.33966,11.77341 L 2.33826,11.7702 L 2.33584,11.76788 L 2.32891,11.76124 L 2.3191,11.7562 L 2.31395,11.74609 L 2.30367,11.73528 L 2.30249,11.7254 L 2.29922,11.72081 L 2.30003,11.71454 L 2.30084,11.70839 L 2.30666,11.69688 L 2.30416,11.68707 L 2.30384,11.68584 L 2.30478,11.68286 L 2.30959,11.6808 L 2.30969,11.6797 L 2.30573,11.67442 L 2.2887,11.66566 L 2.25746,11.64792 L 2.21878,11.6097 L 2.2062,11.60094 L 2.202,11.60001 L 2.19313,11.60069 L 2.18544,11.59724 L 2.16634,11.57697 L 2.15726,11.5696 L 2.14469,11.55418 L 2.10302,11.51295 L 2.09068,11.49889 L 2.08058,11.4901 L 2.08006,11.48965 L 2.07322,11.48369 L 2.06043,11.46987 L 2.03414,11.44292 L 2.02512,11.43371 L 2.01925,11.4277 L 2.0104,11.42332 L 1.98196,11.42004 L 1.96924,11.4209 L 1.95887,11.4216 L 1.95678,11.42047 L 1.95631,11.42021 L 1.95398,11.42136 L 1.93462,11.42522 L 1.91245,11.43069 L 1.89238,11.43961 L 1.88415,11.43797 L 1.87753,11.44247 L 1.87268,11.44577 L 1.86732,11.4453 L 1.85193,11.43887 L 1.84773,11.43841 L 1.84701,11.44054 L 1.84663,11.44166 L 1.84563,11.44461 L 1.84167,11.44438 L 1.83561,11.43817 L 1.82815,11.43426 L 1.82162,11.43288 L 1.80717,11.43655 L 1.8025,11.43585 L 1.79784,11.43172 L 1.79528,11.42642 L 1.78736,11.4248 L 1.78316,11.42181 L 1.77733,11.42204 L 1.7736,11.41927 L 1.76651,11.42161 L 1.76467,11.42222 L 1.76381,11.42249 L 1.75845,11.42226 L 1.75565,11.4172 L 1.75239,11.41673 L 1.75152,11.41742 L 1.74796,11.42018 L 1.7398,11.4165 L 1.73654,11.41742 L 1.73374,11.42178 L 1.7293,11.42385 L 1.72208,11.42315 L 1.71741,11.42982 L 1.71414,11.42912 L 1.7074,11.41533 L 1.70321,11.41003 L 1.69971,11.40796 L 1.69295,11.40933 L 1.68758,11.41438 L 1.68756,11.41438 L 1.68338,11.41415 L 1.67035,11.40057 L 1.66312,11.39642 L 1.65846,11.39573 L 1.6489,11.39664 L 1.64493,11.4004 L 1.64283,11.40238 L 1.64049,11.40198 L 1.63747,11.40146 L 1.62886,11.39294 L 1.62513,11.39086 L 1.62047,11.3904 L 1.61864,11.39139 L 1.6137,11.39407 L 1.59972,11.39474 L 1.59295,11.39819 L 1.58968,11.40324 L 1.59082,11.41797 L 1.58988,11.42117 L 1.58929,11.42177 L 1.58311,11.42783 L 1.57448,11.42989 L 1.5803,11.43932 L 1.57889,11.44347 L 1.57236,11.44437 L 1.56839,11.4469 L 1.56791,11.45724 L 1.55998,11.4623 L 1.5567,11.46988 L 1.55436,11.47149 L 1.55364,11.47131 L 1.55064,11.47056 L 1.54692,11.46021 L 1.54134,11.45054 L 1.53715,11.44778 L 1.53179,11.4473 L 1.52385,11.44982 L 1.51848,11.45441 L 1.50939,11.45647 L 1.50121,11.46635 L 1.49468,11.46587 L 1.48024,11.45458 L 1.47581,11.45412 L 1.46786,11.46652 L 1.46017,11.46352 L 1.45155,11.46259 L 1.44618,11.46487 L 1.44313,11.47222 L 1.4401,11.47383 L 1.4345,11.47221 L 1.43102,11.46622 L 1.42566,11.46622 L 1.42218,11.45586 L 1.42164,11.45525 L 1.41915,11.45241 L 1.41915,11.45241 L 1.41426,11.45148 L 1.40773,11.45422 L 1.4033,11.45284 L 1.38444,11.44222 L 1.37982,11.42336 L 1.38286,11.41578 L 1.38358,11.40957 L 1.38538,11.40871 L 1.38988,11.40659 L 1.39058,11.40269 L 1.38826,11.39945 L 1.37521,11.39736 L 1.37266,11.39023 L 1.36195,11.38469 L 1.35939,11.38515 L 1.35681,11.3902 L 1.35378,11.39042 L 1.35276,11.38924 L 1.35099,11.38719 L 1.35194,11.38145 L 1.34357,11.37177 L 1.34428,11.36694 L 1.34055,11.36395 L 1.3352,11.36233 L 1.32331,11.36368 L 1.32005,11.36275 L 1.31796,11.35906 L 1.3217,11.3531 L 1.32055,11.34895 L 1.32641,11.33471 L 1.33201,11.3315 L 1.3318,11.32346 L 1.33474,11.31953 L 1.34092,11.31129 L 1.34092,11.30807 L 1.33837,11.30531 L 1.33138,11.30116 L 1.32675,11.29102 L 1.32512,11.28987 L 1.31463,11.2926 L 1.31158,11.29927 L 1.30808,11.3011 L 1.30366,11.3004 L 1.30158,11.29189 L 1.29039,11.29324 L 1.28289,11.31023 L 1.27471,11.31712 L 1.26585,11.32124 L 1.25909,11.32098 L 1.2556,11.31821 L 1.25259,11.312 L 1.25213,11.3074 L 1.25304,11.30437 L 1.25496,11.29799 L 1.25474,11.28993 L 1.25826,11.28098 L 1.26177,11.27708 L 1.26667,11.2764 L 1.26945,11.28008 L 1.26384,11.28581 L 1.2636,11.28835 L 1.26593,11.28996 L 1.27082,11.28951 L 1.2741,11.28332 L 1.27343,11.27366 L 1.27625,11.26424 L 1.27601,11.26378 L 1.27393,11.25986 L 1.26043,11.25431 L 1.25207,11.24532 L 1.24834,11.24554 L 1.24206,11.24979 L 1.22803,11.25928 L 1.2229,11.26019 L 1.21196,11.25832 L 1.20612,11.26083 L 1.19844,11.26059 L 1.19099,11.2585 L 1.18516,11.25871 L 1.18119,11.26169 L 1.17676,11.26237 L 1.17369,11.26176 L 1.16861,11.26073 L 1.15952,11.26117 L 1.15274,11.26804 L 1.14784,11.2708 L 1.14202,11.27032 L 1.13644,11.26594 L 1.12925,11.25648 L 1.12903,11.25166 L 1.1363,11.23695 L 1.14331,11.23124 L 1.15357,11.22758 L 1.15637,11.22392 L 1.15569,11.21907 L 1.14943,11.21078 L 1.15153,11.20757 L 1.14852,11.20319 L 1.15249,11.19838 L 1.14973,11.18893 L 1.15254,11.18136 L 1.15047,11.17561 L 1.15514,11.16988 L 1.16005,11.16437 L 1.15903,11.16357 L 1.15587,11.16113 L 1.15137,11.16132 L 1.15051,11.16135 L 1.14701,11.16387 L 1.14116,11.17374 L 1.12532,11.17323 L 1.11833,11.17161 L 1.11183,11.1663 L 1.09699,11.14739 L 1.09404,11.14629 L 1.0914,11.14531 L 1.06042,11.14568 L 1.05554,11.14313 L 1.05276,11.13943 L 1.05465,11.13186 L 1.05094,11.12771 L 1.05327,11.12473 L 1.06005,11.11969 L 1.06471,11.11878 L 1.06818,11.12339 L 1.06654,11.1273 L 1.06723,11.12891 L 1.07377,11.12594 L 1.07821,11.11883 L 1.08311,11.11769 L 1.08662,11.11333 L 1.08455,11.10505 L 1.09016,11.09978 L 1.08645,11.09264 L 1.08646,11.08988 L 1.093,11.08576 L 1.09578,11.07993 L 1.09651,11.07841 L 1.09352,11.06898 L 1.0977,11.06471 L 1.09983,11.06256 L 1.09961,11.05658 L 1.10989,11.04626 L 1.11526,11.04122 L 1.11597,11.03847 L 1.11578,11.03819 L 1.11017,11.0304 L 1.10013,11.04163 L 1.09102,11.04874 L 1.08473,11.0517 L 1.07448,11.05374 L 1.07065,11.05786 L 1.06957,11.05901 L 1.06491,11.05877 L 1.04306,11.04905 L 1.03514,11.04948 L 1.02978,11.05267 L 1.02205,11.06323 L 1.01641,11.07931 L 1.01435,11.0819 L 1.01313,11.08344 L 1.00917,11.08572 L 0.99915,11.08569 L 0.98916,11.08037 L 0.98424,11.08885 L 0.98167,11.09068 L 0.97864,11.09045 L 0.97725,11.08884 L 0.97192,11.08215 L 0.97009,11.07455 L 0.97129,11.06444 L 0.96992,11.05799 L 0.96505,11.05199 L 0.96272,11.05176 L 0.96297,11.04947 L 0.94887,11.03583 L 0.94451,11.03393 L 0.92156,11.01746 L 0.91215,10.99648 L 0.90051,10.99664 L 0.89794,10.99801 L 0.89004,10.99635 L 0.85466,10.99498 L 0.84813,10.99701 L 0.81578,10.99565 L 0.81577,10.99657 L 0.80204,10.99695 L 0.75827,10.99735 L 0.73989,10.99608 L 0.7159,10.99799 L 0.69092,10.99751 L 0.67842,10.99728 L 0.66468,10.99764 L 0.66096,10.99751 L 0.65631,10.99735 L 0.6041,10.97468 L 0.59506,10.96956 L 0.589,10.96975 L 0.55211,10.95477 L 0.53147,10.94473 L 0.52497,10.94283 L 0.49468,10.93099 L 0.50042,10.94811 L 0.50063,10.94897 L 0.50634,10.97321 L 0.50583,10.9801 L 0.50419,10.9824 L 0.49372,10.98234 L 0.48997,10.98623 L 0.50128,11.00376 L 0.50285,11.00908 L 0.50071,11.00911 L 0.42072,11.02505 L 0.40626,11.02862 L 0.38341,11.03281 L 0.37764,11.03397 L 0.37293,11.03491 L 0.35705,11.03811 L 0.30411,11.04958 L 0.28382,11.05222 L 0.26189,11.05779 L 0.24777,11.06068 L 0.24481,11.06129 L 0.23599,11.0631 L 0.19074,11.07168 L 0.12986,11.08334 L 0.11422,11.08688 L 0.09789,11.09041 L 0.0916,11.09035 L 0.08226,11.09325 L 0.05869,11.09879 L 0.05038,11.10004 L 0.0499,11.10011 L 0.03522,11.10232 L 0,11.11002 L -0.01901,11.11417 L -0.02856,11.1143 L -0.03651,11.11723 L -0.05704,11.12048 L -0.07198,11.12447 L -0.09461,11.12794 L -0.10186,11.13039 L -0.11147,11.13223 L -0.11294,11.13251 L -0.13056,11.13586 L -0.142,11.13898 L -0.16022,11.14385 L -0.18965,11.15183 L -0.1928,11.1527 L -0.19853,11.15427 L -0.21301,11.15759 L -0.23006,11.16178 L -0.26441,11.17178 L -0.27327,11.17329 L -0.27565,11.17179 L -0.27952,11.16933 L -0.2824,11.15527 L -0.2835,11.15304 L -0.28508,11.15045 L -0.28978,11.15063 L -0.29027,11.14914 L -0.29139,11.14361 L -0.28879,11.13926 L -0.28038,11.13657 L -0.27616,11.13338 L -0.27397,11.1219 L -0.28836,11.11536 L -0.30529,11.11221 L -0.31161,11.11102 L -0.31694,11.10822 L -0.32858,11.10767 L -0.3374,11.10391 L -0.34016,11.10045 L -0.34149,11.09589 L -0.34491,11.08408 L -0.34884,11.08037 L -0.35489,11.07963 L -0.35742,11.07639 L -0.3583,11.06972 L -0.36108,11.06808 L -0.3618,11.0706 L -0.37333,11.08476 L -0.37434,11.09326 L -0.37435,11.09328 L -0.37906,11.10081 L -0.3791,11.10149 L -0.3796,11.10977 L -0.37666,11.11601 L -0.37987,11.11617 L -0.38074,11.1162 L -0.38236,11.11628 L -0.39242,11.12054 L -0.39551,11.12031 L -0.39964,11.12 L -0.4327,11.09827 L -0.43418,11.08514 L -0.44027,11.06805 L -0.44292,11.0547 L -0.43924,11.03886 L -0.43751,11.02969 L -0.43918,11.02873 L -0.44977,11.02266 L -0.45625,11.01936 L -0.45671,11.01951 L -0.47565,11.02536 L -0.48262,11.02413 L -0.4909,11.0153 L -0.50154,11.00944 L -0.5074,10.99305 L -0.51431,10.98676 L -0.5194,10.98418 L -0.52757,10.98524 L -0.53439,10.9916 L -0.53808,10.98879 L -0.55163,10.97278 L -0.55848,10.98167 L -0.56965,10.98132 L -0.57886,10.97247 L -0.58757,10.96065 L -0.59505,10.94354 L -0.59629,10.93089 L -0.59561,10.9125 L -0.60896,10.90466 L -0.6104,10.90382 L -0.62115,10.90218 L -0.62821,10.92847 L -0.63269,10.93639 L -0.63389,10.93854 L -0.63974,10.94101 L -0.64952,10.94206 L -0.65118,10.94481 L -0.65054,10.95148 L -0.65197,10.95423 L -0.65632,10.95716 L -0.65735,10.95786 L -0.66127,10.95368 L -0.66308,10.94791 L -0.67314,10.9538 L -0.67387,10.95679 L -0.67045,10.96394 L -0.66584,10.96905 L -0.65935,10.97118 L -0.65683,10.97557 L -0.65642,10.98086 L -0.66736,10.98076 L -0.67157,10.98302 L -0.67459,10.9823 L -0.67895,10.97605 L -0.68173,10.97533 L -0.68501,10.97714 L -0.68878,10.98125 L -0.68882,10.98608 L -0.68709,10.99072 L -0.68896,10.99051 L -0.697,10.9907 L -0.7027,10.99084 L -0.71212,10.99106 L -0.7148,10.99113 L -0.73226,10.99091 L -0.74996,10.99139 L -0.75692,10.98971 L -0.76531,10.99007 L -0.76836,10.99187 L -0.79164,10.99228 L -0.80306,10.99306 L -0.80888,10.99275 L -0.81413,11.00281 L -0.83298,11.00281 L -0.83337,11.00172 L -0.83703,10.99149 L -0.85307,10.98945 L -0.86075,10.98936 L -0.86263,10.98691 L -0.86452,10.98444 L -0.87288,10.97357 L -0.87352,10.96896 L -0.87835,10.95973 L -0.87869,10.95908 L -0.89063,10.95979 L -0.90335,10.97181 L -0.92154,10.97365 L -0.92425,10.98512 L -0.93298,10.9942 L -0.93353,10.9942 L -0.96511,10.99426 L -0.96902,10.99277 L -0.97391,10.99091 L -0.99835,10.99061 L -1.00963,10.99851 L -1.02896,10.99872 L -1.06134,11.0006 L -1.08555,11.0005 L -1.10079,11.00072 L -1.10152,11.00072 L -1.11955,11.00098 L -1.12186,10.98277 L -1.15168,10.98399 L -1.16544,10.98588 L -1.19454,10.9864 L -1.23581,10.99043 L -1.3045,10.99133 L -1.31011,10.99286 L -1.32219,10.9913 L -1.34059,10.99174 L -1.34965,10.99046 L -1.36223,10.99074 L -1.36224,10.99166 L -1.37736,10.99052 L -1.39737,10.99023 L -1.40213,10.99408 L -1.41336,11.00316 L -1.42373,11.01153 L -1.43178,11.01803 L -1.46205,11.01851 L -1.48765,11.01745 L -1.50909,11.01875 L -1.52164,11.0174 L -1.53353,11.01862 L -1.58684,11.01897 L -1.58686,11.01897 L -1.58842,11.01457 L -1.58903,11.00858 L -1.58728,11.00126 L -1.58946,10.9918 L -1.59267,10.9883 L -1.61669,10.99069 L -1.62109,10.98948 L -1.63117,10.9937 L -1.64567,10.99785 L -1.65985,10.99693 L -1.70342,10.98409 L -1.71588,10.977 L -1.7417,10.97614 L -1.74663,10.97881 L -1.756,10.98212 L -1.79069,10.9825 L -1.81676,10.98185 L -1.82957,10.98257 L -1.87205,10.98232 L -1.89755,10.98218 L -1.90308,10.98209 L -1.9048,10.98206 L -1.93386,10.98158 L -1.9664,10.97899 L -1.97809,10.98155 L -2.04766,10.97903 L -2.05112,10.97736 L -2.06092,10.97858 L -2.09606,10.97799 L -2.13122,10.97832 L -2.15798,10.97786 L -2.19649,10.98318 L -2.20392,10.98213 L -2.21609,10.98537 L -2.2345,10.9862 L -2.25502,10.98837 L -2.26035,10.98712 L -2.27688,10.98685 L -2.29594,10.98489 L -2.3341,10.98399 L -2.35878,10.98425 L -2.36137,10.98455 L -2.37068,10.98565 L -2.37205,10.98557 L -2.38789,10.98466 L -2.40327,10.9853 L -2.43307,10.98521 L -2.44517,10.985 L -2.50544,10.98344 L -2.51898,10.98527 L -2.53184,10.98826 L -2.55187,10.98881 L -2.55558,10.98782 L -2.57825,10.99245 L -2.5948,10.99352 L -2.60906,10.99602 L -2.60997,10.99599 L -2.67608,10.9943 L -2.69777,10.99642 L -2.69926,10.9958 L -2.70006,10.99546 L -2.70124,10.99497 L -2.70475,10.99628 L -2.7171,10.99651 L -2.71806,10.99652 L -2.72838,10.99658 L -2.7342,10.99662 L -2.74411,10.99669 L -2.75346,10.99857 L -2.7623,10.99818 L -2.77221,11.00465 L -2.81177,11.00366 L -2.81827,11.00381 L -2.82327,11.00391 L -2.82327,11.00391 L -2.83415,11.00416 L -2.83432,11.00416 L -2.83636,10.99911 L -2.84069,10.98064 L -2.84227,10.97784 L -2.84216,10.97186 L -2.84382,10.96413 L -2.84439,10.96152 L -2.84474,10.95986 L -2.83969,10.95052 L -2.82739,10.9397 L -2.82305,10.93104 L -2.82225,10.92553 L -2.82506,10.91329 L -2.83361,10.8966 L -2.84068,10.88841 L -2.85433,10.88381 L -2.86156,10.88461 L -2.8639,10.88331 L -2.86709,10.88152 L -2.86936,10.87849 L -2.87053,10.86606 L -2.86913,10.85275 L -2.86973,10.85098 L -2.87147,10.84579 L -2.87201,10.84418 L -2.88287,10.82698 L -2.88352,10.81133 L -2.8863,10.79796 L -2.88888,10.78973 L -2.89378,10.77414 L -2.89838,10.76563 L -2.90144,10.75997 L -2.92008,10.7362 L -2.93455,10.72606 L -2.93866,10.72161 L -2.94135,10.71581 L -2.94306,10.70773 L -2.94252,10.70384 L -2.93719,10.70463 L -2.93423,10.7018 L -2.93009,10.69785 L -2.91656,10.69533 L -2.91207,10.69173 L -2.91128,10.68623 L -2.91571,10.67419 L -2.91672,10.66589 L -2.9208,10.66007 L -2.94074,10.64362 L -2.94458,10.63782 L -2.94559,10.62952 L -2.94235,10.61256 L -2.92525,10.58411 L -2.91313,10.55673 L -2.9055,10.5463 L -2.9026,10.52702 L -2.89693,10.50919 L -2.88697,10.49809 L -2.88243,10.49081 L -2.87778,10.47756 L -2.87696,10.47115 L -2.87358,10.46195 L -2.8726,10.45933 L -2.86988,10.45194 L -2.8649,10.44629 L -2.84711,10.43878 L -2.82858,10.42875 L -2.80711,10.4236 L -2.78525,10.42191 L -2.77836,10.41865 L -2.77634,10.41769 L -2.78064,10.41071 L -2.79136,10.3995 L -2.79968,10.39751 L -2.80563,10.39236 L -2.81023,10.39339 L -2.818,10.39513 L -2.82724,10.39245 L -2.83478,10.38519 L -2.83949,10.37614 L -2.84587,10.3427 L -2.85301,10.32648 L -2.85364,10.32152 L -2.85403,10.31841 L -2.8494,10.30585 L -2.83944,10.2943 L -2.8082,10.27437 L -2.77712,10.26272 L -2.7679,10.25345 L -2.76405,10.2457 L -2.76253,10.23859 L -2.764,10.22961 L -2.76969,10.21866 L -2.77051,10.21708 L -2.79402,10.19415 L -2.79959,10.18072 L -2.79844,10.1699 L -2.79767,10.16541 L -2.79658,10.1591 L -2.79563,10.15366 L -2.78974,10.13537 L -2.7901,10.12939 L -2.79642,10.10606 L -2.79297,10.08128 L -2.79349,10.0714 L -2.79176,10.05166 L -2.78448,10.03385 L -2.78362,10.02421 L -2.76921,10 L -2.76737,9.9969 L -2.76268,9.98089 L -2.75275,9.95646 L -2.75237,9.94843 L -2.77009,9.91387 L -2.77084,9.90904 L -2.77176,9.90304 L -2.7714,9.8987 L -2.77088,9.89249 L -2.76561,9.86959 L -2.76322,9.86526 L -2.75512,9.85299 L -2.73741,9.83421 L -2.73568,9.82826 L -2.73721,9.82249 L -2.74218,9.81505 L -2.75821,9.80429 L -2.76326,9.8009 L -2.76848,9.79507 L -2.77862,9.77834 L -2.78327,9.76685 L -2.78573,9.76076 L -2.79524,9.74773 L -2.79721,9.74126 L -2.79256,9.72685 L -2.79155,9.72227 L -2.79172,9.72159 L -2.7925,9.71832 L -2.79565,9.70519 L -2.79226,9.69675 L -2.78822,9.69108 L -2.77023,9.68219 L -2.7629,9.67381 L -2.75906,9.65296 L -2.75423,9.64201 L -2.75763,9.63643 L -2.77315,9.61089 L -2.77685,9.59727 L -2.7792,9.58574 L -2.77141,9.56427 L -2.76572,9.55656 L -2.75372,9.54549 L -2.73449,9.53157 L -2.71794,9.52519 L -2.71372,9.52273 L -2.71065,9.51888 L -2.70063,9.50782 L -2.69035,9.49647 L -2.68992,9.48878 L -2.69767,9.48394 L -2.70721,9.47479 L -2.72481,9.45102 L -2.7313,9.43964 L -2.73587,9.43655 L -2.75339,9.40956 L -2.76318,9.4011 L -2.77107,9.4021 L -2.7872,9.40983 L -2.79873,9.41926 L -2.81266,9.43324 L -2.83915,9.46121 L -2.84722,9.47093 L -2.86867,9.49004 L -2.90122,9.531 L -2.9108,9.54643 L -2.92549,9.57372 L -2.93113,9.58533 L -2.94241,9.60854 L -2.94333,9.60853 L -2.95124,9.62101 L -2.96157,9.63883 L -2.96589,9.64627 L -2.96613,9.64668 L -2.97753,9.67197 L -2.98472,9.69458 L -2.9952,9.71965 L -3.00669,9.73734 L -3.01283,9.74297 L -3.01724,9.74334 L -3.04278,9.72282 L -3.04825,9.7188 L -3.06009,9.71948 L -3.06619,9.72327 L -3.07727,9.74058 L -3.07985,9.74459 L -3.08778,9.758 L -3.09155,9.76113 L -3.09431,9.77119 L -3.09496,9.79095 L -3.10051,9.80118 L -3.10809,9.8093 L -3.11511,9.82294 L -3.12056,9.83961 L -3.12553,9.84457 L -3.12895,9.84563 L -3.13337,9.84702 L -3.1372,9.84823 L -3.14576,9.84737 L -3.16513,9.84236 L -3.18415,9.84289 L -3.18698,9.8449 L -3.19295,9.85282 L -3.19442,9.8567 L -3.19443,9.86819 L -3.19341,9.88568 L -3.19433,9.896 L -3.19242,9.91489 L -3.19547,9.92747 L -3.19843,9.92741 L -3.20126,9.92735 L -3.20405,9.9247 L -3.20942,9.92442 L -3.21431,9.92091 L -3.21617,9.90869 L -3.22503,9.89911 L -3.22677,9.89885 L -3.23566,9.89753 L -3.23979,9.89516 L -3.24077,9.89391 L -3.24839,9.88419 L -3.25265,9.8763 L -3.26253,9.87174 L -3.27005,9.86314 L -3.27886,9.85304 L -3.28116,9.85162 L -3.2889,9.85654 L -3.29602,9.85318 L -3.29992,9.85335 L -3.31111,9.85381 L -3.31188,9.85332 L -3.31473,9.85555 L -3.31852,9.85914 L -3.31982,9.86532 L -3.31158,9.88113 L -3.31012,9.88828 L -3.31072,9.89494 L -3.31527,9.9015 L -3.32039,9.90231 L -3.3346,9.89466 L -3.34333,9.89056 L -3.3496,9.89112 L -3.35672,9.89855 L -3.36681,9.90408 L -3.39724,9.91653 L -3.40465,9.91615 L -3.42078,9.91142 L -3.4336,9.91414 L -3.46047,9.92321 L -3.46979,9.92507 L -3.47904,9.92372 L -3.49201,9.92298 L -3.50388,9.92479 L -3.52335,9.92435 L -3.54937,9.92632 L -3.5686,9.92543 L -3.57966,9.9222 L -3.59283,9.92006 L -3.59932,9.91969 L -3.60833,9.92845 L -3.61976,9.94153 L -3.62904,9.94982 L -3.63041,9.95104 L -3.63231,9.95274 L -3.63544,9.9542 L -3.64169,9.95713 L -3.64862,9.9556 L -3.65432,9.95156 L -3.67377,9.94009 L -3.68094,9.93923 L -3.69142,9.94083 L -3.70002,9.94167 L -3.70862,9.94251 L -3.71158,9.93992 L -3.7199,9.93858 L -3.72687,9.93911 L -3.75197,9.93164 L -3.77241,9.9229 L -3.77764,9.91841 L -3.78862,9.91196 L -3.80917,9.88827 L -3.81403,9.88792 L -3.83546,9.89202 L -3.85592,9.89431 L -3.87338,9.89712 L -3.88247,9.89875 L -3.88651,9.89916 L -3.88651,9.89916 L -3.89145,9.89966 L -3.90042,9.90057 L -3.90481,9.89297 L -3.91865,9.87888 L -3.9284,9.87936 L -3.93704,9.87137 L -3.94494,9.87235 L -3.95255,9.87012 L -3.95811,9.87023 L -3.96189,9.87337 L -3.96444,9.87331 L -3.969,9.86954 L -3.97294,9.86945 L -3.9745,9.86666 L -3.97418,9.86509 L -3.97372,9.86277 L -3.97813,9.85233 L -3.97688,9.84845 L -3.97283,9.84348 L -3.97408,9.841 L -3.97528,9.8386 L -3.98095,9.83296 L -3.9876,9.82961 L -3.99316,9.82925 L -4.00016,9.83141 L -4.00862,9.83651 L -4.01714,9.8338 L -4.03059,9.8342 L -4.03561,9.83064 L -4.04452,9.81838 L -4.0429,9.80163 L -4.05423,9.80044 L -4.06347,9.79907 L -4.06631,9.80153 L -4.0789,9.80444 L -4.09212,9.81401 L -4.10922,9.82095 L -4.12339,9.83165 L -4.13013,9.83195 L -4.1354,9.82952 L -4.1408,9.82272 L -4.14517,9.81204 L -4.16705,9.79726 L -4.17064,9.78867 L -4.17318,9.78262 L -4.1735,9.78231 L -4.18042,9.77533 L -4.20906,9.76198 L -4.2202,9.7624 L -4.22761,9.76199 L -4.2317,9.7589 L -4.2353,9.75444 L -4.24593,9.75326 L -4.25242,9.75345 L -4.25879,9.75611 L -4.26363,9.75461 L -4.26881,9.75817 L -4.2711,9.75697 L -4.27766,9.73958 L -4.27668,9.7373 L -4.26717,9.73729 L -4.26552,9.73595 L -4.2657,9.73364 L -4.2713,9.72501 L -4.27002,9.71975 L -4.27104,9.71375 L -4.27555,9.7086 L -4.27551,9.7076 L -4.27514,9.70056 L -4.2795,9.69885 L -4.28442,9.69116 L -4.28009,9.6839 L -4.28384,9.676 L -4.28948,9.66921 L -4.28725,9.6626 L -4.28963,9.65542 L -4.28881,9.64992 L -4.29085,9.63792 L -4.30045,9.62207 L -4.30507,9.61638 L -4.31136,9.60862 L -4.31869,9.59959 L -4.34909,9.62457 L -4.35081,9.62599 L -4.36124,9.62621 L -4.36741,9.62263 L -4.3708,9.61887 L -4.37319,9.61215 L -4.37164,9.60422 L -4.37135,9.60277 L -4.37491,9.59648 L -4.38018,9.59406 L -4.38946,9.59454 L -4.39438,9.59696 L -4.40433,9.60638 L -4.41068,9.62003 L -4.41708,9.64632 L -4.42023,9.65222 L -4.42463,9.65626 L -4.42781,9.65917 L -4.43344,9.66226 L -4.43762,9.66239 L -4.45094,9.65749 L -4.46613,9.653 L -4.47583,9.65186 L -4.49343,9.65145 L -4.50007,9.64808 L -4.50734,9.64684 L -4.50792,9.64674 L -4.51052,9.64899 L -4.51416,9.65602 L -4.51887,9.65913 L -4.51935,9.66946 L -4.52177,9.674 L -4.52124,9.68092 L -4.52327,9.68822 L -4.52206,9.70526 L -4.50978,9.71543 L -4.50734,9.71986 L -4.50534,9.73346 L -4.50677,9.73975 L -4.5095,9.74233 L -4.51932,9.74601 L -4.52583,9.7459 L -4.55245,9.74547 L -4.55928,9.74048 L -4.56061,9.73769 L -4.55474,9.72495 L -4.54704,9.72283 L -4.54534,9.71966 L -4.54752,9.71363 L -4.55624,9.70033 L -4.56481,9.6907 L -4.57099,9.68733 L -4.5805,9.6878 L -4.58458,9.69043 L -4.59015,9.69401 L -4.59174,9.70225 L -4.59242,9.70329 L -4.59367,9.70519 L -4.59933,9.70943 L -4.60318,9.71531 L -4.60946,9.71608 L -4.61275,9.7183 L -4.6147,9.72216 L -4.61772,9.72255 L -4.61975,9.71998 L -4.61905,9.7132 L -4.62298,9.71001 L -4.62584,9.70374 L -4.62834,9.70161 L -4.63136,9.702 L -4.63588,9.70649 L -4.64447,9.70744 L -4.64858,9.71423 L -4.65275,9.71413 L -4.65731,9.71104 L -4.65974,9.70615 L -4.65907,9.69766 L -4.6658,9.68877 L -4.6688,9.68824 L -4.67465,9.69063 L -4.67819,9.68365 L -4.68225,9.67918 L -4.68569,9.67772 L -4.6924,9.6771 L -4.69451,9.6782 L -4.6961,9.68644 L -4.69958,9.68712 L -4.70239,9.68767 L -4.70796,9.68799 L -4.71228,9.69432 L -4.72047,9.71597 L -4.72478,9.72207 L -4.72753,9.72982 L -4.73694,9.73557 L -4.73868,9.74035 L -4.73769,9.74704 L -4.74101,9.75018 L -4.74942,9.75274 L -4.77146,9.75381 L -4.77273,9.74873 L -4.77116,9.73763 L -4.77104,9.73681 L -4.77682,9.73621 L -4.78128,9.7384 L -4.78509,9.74245 L -4.78632,9.75483 L -4.79009,9.75727 L -4.80024,9.75518 L -4.80098,9.757 L -4.79908,9.76463 L -4.80059,9.7692 L -4.80385,9.76981 L -4.80635,9.76814 L -4.80983,9.76805 L -4.81813,9.78463 L -4.81632,9.78651 L -4.80931,9.78461 L -4.79729,9.78372 L -4.79074,9.78323 L -4.7887,9.78512 L -4.78876,9.78787 L -4.79306,9.79259 L -4.79627,9.80057 L -4.79307,9.81168 L -4.79437,9.81762 L -4.79358,9.82293 L -4.7868,9.83022 L -4.78874,9.83339 L -4.79021,9.83387 L -4.79598,9.83575 L -4.80433,9.84496 L -4.80804,9.84488 L -4.81331,9.84245 L -4.82049,9.84228 L -4.82954,9.85194 L -4.8291,9.86207 L -4.83147,9.86385 L -4.84595,9.86832 L -4.85167,9.86496 L -4.85722,9.86459 L -4.86461,9.87246 L -4.88033,9.8707 L -4.88278,9.87569 L -4.8861,9.8786 L -4.89421,9.8784 L -4.90692,9.88821 L -4.91384,9.89355 L -4.9196,9.89203 L -4.92803,9.88607 L -4.93074,9.88302 L -4.93126,9.87611 L -4.93444,9.8735 L -4.93699,9.87366 L -4.93937,9.8759 L -4.94085,9.87955 L -4.95601,9.88284 L -4.96785,9.89244 L -4.97151,9.90411 L -4.97264,9.90772 L -4.97178,9.91027 L -4.96491,9.91367 L -4.96141,9.92203 L -4.96102,9.92452 L -4.96022,9.92964 L -4.96461,9.93827 L -4.96149,9.94341 L -4.9583,9.94555 L -4.94976,9.94714 L -4.94688,9.9525 L -4.9488,9.95522 L -4.95911,9.9591 L -4.96314,9.96245 L -4.96333,9.9698 L -4.96668,9.97385 L -4.98309,9.98057 L -4.98782,9.98436 L -4.98904,10 L -4.98955,10.00661 L -4.98826,10.01056 L -4.98624,10.01169 L -4.96443,10.00403 L -4.96408,10.00841 L -4.96839,10.01382 L -4.96208,10.0211 L -4.96145,10.02364 L -4.96973,10.02988 L -4.97102,10.0349 L -4.97047,10.04066 L -4.97167,10.04224 L -4.98241,10.04497 L -4.99024,10.05167 L -4.99372,10.06078 L -5,10.06361 L -5.00439,10.06556 L -5.01026,10.064 L -5.01233,10.06344 L -5.01764,10.06495 L -5.02122,10.07031 L -5.02207,10.07355 L -5.0201,10.07835 L -5.01489,10.08282 L -5.00922,10.09672 L -5.00371,10.10395 L -5.01041,10.10526 L -5.01678,10.10081 L -5.02306,10.10049 L -5.02728,10.09853 L -5.03296,10.09406 L -5.03669,10.09299 L -5.04144,10.08851 L -5.0451,10.08101 L -5.0495,10.08157 L -5.05246,10.0837 L -5.06298,10.08073 L -5.06519,10.08514 L -5.06323,10.08971 L -5.04735,10.10383 L -5.04776,10.10613 L -5.05168,10.10715 L -5.05893,10.10478 L -5.06628,10.10795 L -5.06974,10.10748 L -5.07653,10.10658 L -5.07995,10.10896 L -5.08165,10.11567 L -5.07867,10.12388 L -5.07386,10.12124 L -5.07058,10.12247 L -5.06636,10.12405 L -5.06313,10.12328 L -5.06023,10.11861 L -5.05724,10.11739 L -5.05442,10.11894 L -5.04792,10.11879 L -5.04409,10.12376 L -5.04924,10.1317 L -5.0682,10.13467 L -5.07986,10.1423 L -5.08159,10.14787 L -5.0803,10.15336 L -5.08114,10.15706 L -5.0806,10.15794 L -5.07703,10.16386 L -5.0755,10.1718 L -5.07466,10.17619 L -5.07359,10.18172 L -5.07462,10.18279 L -5.07473,10.1829 L -5.09546,10.1797 L -5.10508,10.17555 L -5.1104,10.17637 L -5.11359,10.17896 L -5.1147,10.1813 L -5.11159,10.18491 L -5.09852,10.18782 L -5.09125,10.201 L -5.08847,10.21036 L -5.08907,10.21902 L -5.09482,10.22684 L -5.10246,10.21781 L -5.12911,10.20682 L -5.12989,10.20649 L -5.13168,10.20929 L -5.12645,10.22665 L -5.1389,10.21611 L -5.15145,10.2157 L -5.15878,10.22001 L -5.16365,10.23069 L -5.16445,10.23755 L -5.16521,10.24407 L -5.16389,10.25117 L -5.15752,10.26598 L -5.1494,10.27915 L -5.14619,10.28436 L -5.14416,10.29191 L -5.14426,10.29381 L -5.14492,10.30636 L -5.14531,10.31355 L -5.15277,10.32246 L -5.15714,10.32462 L -5.16178,10.32472 L -5.17336,10.3192 L -5.18353,10.30795 L -5.19239,10.30206 L -5.19611,10.30485 L -5.20601,10.30853 L -5.20804,10.3111 L -5.2056,10.31611 L -5.20686,10.32235 L -5.21011,10.32219 L -5.22248,10.30936 L -5.23209,10.31556 L -5.23429,10.31541 L -5.23731,10.31521 L -5.25024,10.31435 L -5.25933,10.31319 L -5.26637,10.3099 L -5.27021,10.31481 L -5.27392,10.3152 L -5.27855,10.31569 L -5.28067,10.31413 L -5.28125,10.30908 L -5.28612,10.30942 L -5.29543,10.31883 L -5.30029,10.31986 L -5.30403,10.31866 L -5.30496,10.31835 L -5.30805,10.31544 L -5.30209,10.31207 L -5.30148,10.30839 L -5.30388,10.30476 L -5.30711,10.30552 L -5.30847,10.30708 L -5.30915,10.30787 L -5.31394,10.30154 L -5.32068,10.30145 L -5.32969,10.29337 L -5.33456,10.29325 L -5.34603,10.29995 L -5.35202,10.3017 L -5.35291,10.30356 L -5.351,10.30605 L -5.3547,10.30682 L -5.35917,10.30415 L -5.36512,10.2875 L -5.36819,10.28526 L -5.37421,10.28586 L -5.38215,10.29455 L -5.39172,10.29222 L -5.39676,10.29533 L -5.40721,10.29556 L -5.41719,10.30613 L -5.42318,10.30833 L -5.4239,10.31778 L -5.42606,10.32037 L -5.4269,10.32137 L -5.4282,10.32294 L -5.43285,10.32258 L -5.43803,10.31924 L -5.4408,10.31999 L -5.4444,10.32513 L -5.44471,10.3325 L -5.44668,10.33783 L -5.45148,10.34138 L -5.46145,10.34206 L -5.4681,10.34589 L -5.47261,10.3522 L -5.46719,10.35577 L -5.4676,10.35807 L -5.46498,10.36078 L -5.4699,10.36962 L -5.46866,10.37328 L -5.47276,10.37682 L -5.47881,10.37649 L -5.48282,10.37359 L -5.48807,10.37784 L -5.48918,10.38039 L -5.48653,10.38471 L -5.49971,10.40823 L -5.50295,10.40899 L -5.50952,10.41673 L -5.5091,10.42522 L -5.51114,10.42427 L -5.51379,10.42303 L -5.51751,10.42333 L -5.51553,10.42835 L -5.51891,10.43326 L -5.51832,10.439 L -5.51657,10.4431 L -5.5122,10.45335 L -5.51462,10.45939 L -5.51432,10.46238 L -5.51099,10.46599 L -5.50877,10.47169 L -5.50619,10.47301 L -5.50325,10.47961 L -5.49948,10.48206 L -5.49793,10.48917 L -5.49461,10.49232 L -5.49569,10.49579 L -5.48521,10.51764 L -5.4818,10.53017 L -5.47737,10.54646 L -5.47022,10.55458 L -5.46541,10.56161 L -5.47289,10.58086 L -5.46589,10.59245 L -5.46509,10.59726 L -5.46747,10.60513 L -5.47159,10.60822 L -5.47275,10.60856 L -5.47448,10.60905 L -5.47536,10.60931 L -5.47759,10.60995 L -5.47844,10.61365 L -5.48097,10.61509 L -5.48288,10.62341 L -5.47989,10.62863 L -5.48026,10.64517 L -5.47944,10.66058 L -5.47638,10.71825 L -5.46997,10.73537 L -5.47329,10.75488 L -5.47329,10.75488 L -5.4739,10.75845 L -5.46635,10.76312 L -5.45256,10.76582 L -5.45005,10.76938 L -5.4492,10.77058 L -5.44777,10.78297 L -5.44456,10.79188 L -5.44408,10.80314 L -5.43807,10.81221 L -5.43501,10.81376 L -5.43542,10.81653 L -5.42899,10.82352 L -5.42405,10.83653 L -5.42231,10.85259 L -5.42499,10.85771 L -5.43548,10.86806 L -5.43553,10.86807 L -5.44904,10.87347 L -5.46494,10.90549 L -5.46434,10.93401 L -5.46926,10.94308 L -5.46864,10.9617 L -5.47181,10.96568 L -5.48685,10.97038 L -5.48959,10.97319 L -5.48927,10.9771 L -5.48663,10.98096 L -5.48656,10.99476 L -5.49456,11.02392 L -5.49578,11.04823 L -5.49625,11.05753 L -5.49653,11.06306 L -5.49075,11.07191 L -5.47059,11.07771 L -5.4661,11.0806 L -5.45911,11.08066 L -5.45841,11.08067 L -5.40899,11.09296 L -5.3942,11.09794 L -5.36371,11.11775 L -5.36147,11.11952 L -5.34901,11.1294 L -5.34509,11.13311 L -5.3414,11.1366 L -5.33591,11.15327 L -5.33221,11.17299 L -5.33298,11.18037 L -5.32818,11.19752 L -5.31423,11.20664 L -5.28594,11.22099 L -5.27823,11.22852 L -5.27213,11.23449 L -5.26738,11.24888 L -5.26462,11.26608 L -5.26435,11.27343 L -5.2678,11.33517 L -5.26748,11.34988 L -5.26565,11.35881 L -5.25938,11.36835 L -5.24633,11.37795 L -5.23385,11.38319 L -5.23174,11.38407 L -5.21632,11.3957 L -5.21096,11.40547 L -5.20744,11.41737 L -5.20093,11.42547 L -5.19952,11.4325 L -5.20198,11.43716 L -5.2032,11.44501 L -5.20569,11.44797 L -5.21091,11.45416 L -5.21231,11.45805 L -5.2136,11.46133 L -5.21436,11.46667 L -5.21048,11.48292 L -5.21095,11.48936 L -5.215,11.51245 L -5.20389,11.5292 L -5.20477,11.53423 L -5.21457,11.548 L -5.21938,11.55815 L -5.22265,11.57117 L -5.22286,11.57599 L -5.22324,11.5853 L -5.22867,11.59145 L -5.23468,11.5946 L -5.23993,11.60278 L -5.24126,11.60487 L -5.2487,11.60619 L -5.27863,11.60342 L -5.28444,11.6047 L -5.29319,11.61162 L -5.29909,11.61929 L -5.2994,11.62681 L -5.29074,11.64426 L -5.28899,11.65035 L -5.27559,11.67409 L -5.2716,11.68587 L -5.27147,11.69161 L -5.27536,11.70647 L -5.2762,11.70966 L -5.27351,11.7149 L -5.27007,11.72195 L -5.27101,11.7321 L -5.26539,11.74302 L -5.26508,11.74624 L -5.26884,11.75552 L -5.26398,11.76369 L -5.26976,11.76613 L -5.27398,11.7653 L -5.28184,11.7588 L -5.28556,11.75957 L -5.29751,11.77097 L -5.29364,11.77598 L -5.29615,11.77978 L -5.29742,11.78169 L -5.29943,11.78566 L -5.30831,11.78563 L -5.31033,11.78639 L -5.31155,11.78686 L -5.31591,11.79354 L -5.32366,11.7943 L -5.324,11.79446 L -5.33464,11.79918 L -5.33784,11.8017 L -5.34763,11.80238 L -5.3513,11.80545 L -5.35415,11.80299 L -5.35491,11.79906 L -5.35728,11.79628 L -5.36126,11.79809 L -5.36518,11.80244 L -5.36976,11.80312 L -5.37417,11.81087 L -5.38332,11.81309 L -5.38724,11.81744 L -5.39038,11.81808 L -5.39421,11.81477 L -5.39622,11.81483 L -5.40014,11.81918 L -5.40809,11.82335 L -5.41,11.82736 L -5.40931,11.83187 L -5.40889,11.83243 L -5.40633,11.83577 L -5.398,11.83685 L -5.38975,11.8399 L -5.38831,11.84193 L -5.38199,11.84249 L -5.38129,11.84098 L -5.37954,11.83714 L -5.37325,11.83632 L -5.36726,11.83273 L -5.36068,11.8243 L -5.35413,11.82484 L -5.34937,11.82726 L -5.33348,11.83735 L -5.32868,11.84489 L -5.32723,11.84514 L -5.32447,11.84251 L -5.32362,11.84179 L -5.32248,11.84002 L -5.30829,11.83841 L -5.30734,11.8383 L -5.30417,11.84653 L -5.2985,11.85072 L -5.29297,11.85362 L -5.28619,11.85416 L -5.28411,11.85297 L -5.28331,11.84855 L -5.28293,11.8443 L -5.28018,11.84114 L -5.27536,11.83994 L -5.27411,11.83978 L -5.27026,11.83562 L -5.2677,11.83557 L -5.26335,11.84191 L -5.25328,11.84261 L -5.25438,11.84586 L -5.25234,11.85075 L -5.25247,11.85345 L -5.25505,11.85408 L -5.25049,11.86332 L -5.24343,11.86909 L -5.23591,11.87032 L -5.22447,11.87852 L -5.22081,11.88638 L -5.21647,11.88712 L -5.21077,11.89575 L -5.21043,11.89583 L -5.19721,11.89882 L -5.193,11.90406 L -5.18863,11.90475 L -5.18555,11.90815 L -5.18031,11.92139 L -5.18044,11.927 L -5.17873,11.9299 L -5.16916,11.93413 L -5.16174,11.93188 L -5.15797,11.93318 L -5.15652,11.94778 L -5.15455,11.94944 L -5.14942,11.94909 L -5.14596,11.94717 L -5.14348,11.94817 L -5.14006,11.94957 L -5.12911,11.95801 L -5.12673,11.95985 L -5.11153,11.96329 L -5.10156,11.96709 L -5.09118,11.97122 L -5.08807,11.97414 L -5.08728,11.97758 L -5.08307,11.97817 L -5.08256,11.97977 L -5.07855,11.98151 L -5.07591,11.97929 L -5.07351,11.97726 L -5.06182,11.97745 L -5.04979,11.982 L -5.03479,11.98396 L -5.02177,11.98089 L -5.01205,11.98665 L -5.00622,11.98627 L -5,11.98434 L -4.99489,11.98301 L -4.99203,11.98362 L -4.98885,11.98431 L -4.98016,11.99188 L -4.97683,11.98966 L -4.9738,11.98997 L -4.96899,11.99377 L -4.95947,11.99608 L -4.95329,12.00106 L -4.92407,12.00056 L -4.92009,12.0005 L -4.90618,12.00521 L -4.90004,12.0026 L -4.89283,12.00392 L -4.88761,12.00084 L -4.88107,12.00122 L -4.86811,12.00637 L -4.86287,12.01133 L -4.85663,12.01447 L -4.84609,12.01334 L -4.84081,12.01739 L -4.83777,12.017 L -4.83508,12.01223 L -4.83173,12.00955 L -4.82608,12.00761 L -4.8074,12.00853 L -4.80697,12.00993 L -4.78775,12.00762 L -4.76343,12.00729 L -4.75275,12.00088 L -4.74782,11.99985 L -4.74572,11.99966 L -4.73434,11.99679 L -4.73138,11.99837 L -4.72459,12.00682 L -4.71754,12.03092 L -4.71772,12.0376 L -4.71332,12.04285 L -4.71302,12.04321 L -4.7073,12.05006 L -4.69741,12.05584 L -4.68319,12.05736 L -4.66999,12.05355 L -4.66928,12.05334 L -4.65831,12.05386 L -4.64669,12.0652 L -4.64197,12.07223 L -4.63745,12.09534 L -4.63645,12.09734 L -4.63301,12.1042 L -4.62555,12.11359 L -4.61453,12.12147 L -4.60737,12.12464 L -4.60059,12.12482 L -4.58904,12.12994 L -4.58109,12.13015 L -4.56905,12.1346 L -4.5615,12.14974 L -4.56157,12.15227 L -4.5721,12.16144 L -4.57829,12.16541 L -4.58349,12.16734 L -4.58686,12.17117 L -4.5909,12.18211 L -4.59087,12.18993 L -4.58783,12.19461 L -4.58661,12.19649 L -4.54721,12.22808 L -4.541,12.23215 L -4.52366,12.2487 L -4.51445,12.25422 L -4.50334,12.26761 L -4.4959,12.27814 L -4.48791,12.29468 L -4.48661,12.31657 L -4.48444,12.32282 L -4.4813,12.32452 L -4.47683,12.32693 L -4.46697,12.32603 L -4.44812,12.32098 L -4.42958,12.30994 L -4.42369,12.30872 L -4.42103,12.31431 L -4.42382,12.32228 L -4.42383,12.3223 L -4.42962,12.32927 L -4.43055,12.32925 L -4.43218,12.33195 L -4.43789,12.34148 L -4.44127,12.35451 L -4.45098,12.37681 L -4.45183,12.40025 L -4.45291,12.4147 L -4.45089,12.42672 L -4.43802,12.45395 L -4.42943,12.4836 L -4.42448,12.49108 L -4.41238,12.50312 L -4.40012,12.51814 L -4.39346,12.53188 L -4.39674,12.54124 L -4.40619,12.55318 L -4.41041,12.56228 L -4.41307,12.57464 L -4.41595,12.57732 L -4.41981,12.59056 L -4.42808,12.60209 L -4.43409,12.60815 L -4.44485,12.61639 L -4.46332,12.62397 L -4.46622,12.62757 L -4.47787,12.63396 L -4.48748,12.65166 L -4.49135,12.66535 L -4.48763,12.6843 L -4.48949,12.71048 L -4.48476,12.7175 L -4.47924,12.72178 L -4.47387,12.72237 L -4.46866,12.72021 L -4.44712,12.72121 L -4.43946,12.72369 L -4.42656,12.72333 L -4.41418,12.72478 L -4.39318,12.72854 L -4.37989,12.73116 L -4.36959,12.73142 L -4.35776,12.72711 L -4.3525,12.72334 L -4.33421,12.7047 L -4.32262,12.70039 L -4.3113,12.69768 L -4.29447,12.69923 L -4.27618,12.70796 L -4.26468,12.71629 L -4.24828,12.7259 L -4.24294,12.73435 L -4.23927,12.74014 L -4.23333,12.75546 L -4.22829,12.77813 L -4.22724,12.80161 L -4.23109,12.82406 L -4.23628,12.84348 L -4.23849,12.85699 L -4.23643,12.86808 L -4.23669,12.87819 L -4.23241,12.90336 L -4.23333,12.91184 L -4.23332,12.91189 L -4.23282,12.916 L -4.23081,12.93242 L -4.23022,12.93722 L -4.2303,12.93784 L -4.2303,12.9379 L -4.23195,12.94982 L -4.23762,12.96072 L -4.25614,12.9789 L -4.28156,13.00932 L -4.28917,13.0313 L -4.29144,13.03783 L -4.30091,13.05967 L -4.3131,13.07754 L -4.32328,13.09016 L -4.33341,13.10049 L -4.35329,13.11633 L -4.35698,13.12267 L -4.35677,13.12419 L -4.3554,13.13398 L -4.35112,13.14099 L -4.34585,13.14618 L -4.33657,13.15054 L -4.3036,13.1732 L -4.28736,13.18073 L -4.27634,13.18123 L -4.26243,13.17903 L -4.25211,13.17952 L -4.24633,13.18265 L -4.24156,13.18897 L -4.24365,13.19743 L -4.24779,13.20308 L -4.25473,13.20843 L -4.26041,13.21956 L -4.26078,13.22484 L -4.25833,13.22972 L -4.22614,13.25541 L -4.22266,13.25819 L -4.20621,13.26708 L -4.19226,13.27248 L -4.17851,13.27673 L -4.16372,13.28581 L -4.15631,13.29014 L -4.14713,13.29841 L -4.1449,13.30328 L -4.13754,13.30944 L -4.13337,13.31184 L -4.12269,13.32612 L -4.11536,13.34284 L -4.11084,13.35928 L -4.1086,13.37336 L -4.10258,13.38592 L -4.09248,13.39536 L -4.08454,13.39738 L -4.06872,13.40373 L -4.05835,13.41157 L -4.05334,13.41812 L -4.0364,13.42657 L -4.03085,13.42803 L -4.02005,13.43086 L -4.01911,13.43104 L -4.00579,13.43349 L -3.99843,13.43987 L -3.98458,13.45975 L -3.98328,13.47356 L -3.98653,13.4912 L -3.98453,13.49583 L -3.97197,13.5012 L -3.96229,13.49934 L -3.95995,13.49764 L -3.95679,13.49534 L -3.94961,13.47091 L -3.95021,13.46652 L -3.94627,13.45925 L -3.93982,13.45481 L -3.92017,13.44906 L -3.91583,13.44456 L -3.91564,13.43652 L -3.91975,13.43159 L -3.94823,13.42403 L -3.94821,13.42312 L -3.95827,13.4215 L -3.97006,13.41387 L -3.97484,13.40755 L -3.9742,13.40067 L -3.9738,13.39378 L -3.96753,13.38702 L -3.96085,13.38282 L -3.9466,13.37671 L -3.93091,13.37868 L -3.91236,13.37911 L -3.87716,13.37049 L -3.85923,13.36461 L -3.85229,13.36234 L -3.83419,13.3616 L -3.81379,13.36298 L -3.79771,13.35853 L -3.77696,13.34543 L -3.7647,13.33352 L -3.73514,13.2951 L -3.72264,13.2832 L -3.70655,13.2778 L -3.68642,13.27067 L -3.67144,13.2625 L -3.66068,13.25423 L -3.62609,13.22097 L -3.60698,13.20667 L -3.59984,13.20223 L -3.59039,13.19968 L -3.58281,13.19662 L -3.57921,13.19326 L -3.55078,13.18169 L -3.53224,13.17198 L -3.49923,13.16534 L -3.48555,13.16242 L -3.47822,13.15983 L -3.46883,13.16003 L -3.46585,13.15855 L -3.46585,13.15855 L -3.4648,13.15804 L -3.44884,13.15793 L -3.43322,13.16286 L -3.42271,13.17573 L -3.41959,13.1935 L -3.42031,13.20475 L -3.42512,13.23063 L -3.43422,13.24905 L -3.43487,13.2571 L -3.43149,13.26337 L -3.42477,13.2672 L -3.41732,13.26874 L -3.40373,13.27155 L -3.38756,13.27282 L -3.37023,13.27502 L -3.35379,13.27468 L -3.3414,13.27702 L -3.30599,13.27914 L -3.28429,13.28112 L -3.27341,13.28212 L -3.25608,13.28385 L -3.244,13.28986 L -3.23898,13.30254 L -3.23776,13.30563 L -3.23848,13.31664 L -3.24367,13.32871 L -3.24436,13.33882 L -3.2596,13.35896 L -3.26098,13.3686 L -3.26125,13.40215 L -3.26289,13.42373 L -3.26969,13.47646 L -3.27655,13.5108 L -3.282,13.53413 L -3.27896,13.54569 L -3.27103,13.55897 L -3.26847,13.56017 L -3.26058,13.57574 L -3.25903,13.59093 L -3.25724,13.60592 L -3.25649,13.62502 L -3.25827,13.63119 L -3.25512,13.64848 L -3.25629,13.66985 L -3.26189,13.67846 L -3.28062,13.69622 L -3.28379,13.70099 L -3.28484,13.70625 L -3.27964,13.71578 L -3.27264,13.71823 L -3.26652,13.71837 L -3.26159,13.71847 L -3.23935,13.71249 L -3.22892,13.70879 L -3.20984,13.69655 L -3.18561,13.68533 L -3.17837,13.68558 L -3.16893,13.6859 L -3.14648,13.69186 L -3.13433,13.69556 L -3.12212,13.69627 L -3.10728,13.69543 L -3.10301,13.69367 L -3.0829,13.67683 L -3.06874,13.6631 L -3.05993,13.6357 L -3.05145,13.62391 L -3.04556,13.62357 L -3.03909,13.62852 L -3.02364,13.65411 L -3.02277,13.65759 L -3.01724,13.66322 L -3.00652,13.66756 L -3.00133,13.66675 L -2.99515,13.66364 L -2.95943,13.63057 L -2.9537,13.62677 L -2.9441,13.62856 L -2.93718,13.63469 L -2.93119,13.63711 L -2.9277,13.6386 L -2.92238,13.64034 L -2.9058,13.6458 L -2.8881,13.65279 L -2.8786,13.6561 L -2.8832,13.66859 L -2.8922,13.6908 L -2.8986,13.70779 L -2.9042,13.72169 L -2.9042,13.7392 L -2.9042,13.74989 L -2.9039,13.7736 L -2.9039,13.79109 L -2.9039,13.8075 L -2.9042,13.81719 L -2.9022,13.82829 L -2.898,13.84 L -2.89799,13.84 L -2.8878,13.84859 L -2.88,13.85529 L -2.8831,13.86639 L -2.8844,13.87749 L -2.8783,13.89439 L -2.8719,13.9119 L -2.865,13.92889 L -2.8583,13.9461 L -2.8522,13.9628 L -2.8458,13.98029 L -2.8381,13.9978 L -2.84381,14.00478 L -2.8458,14.00719 L -2.8472,14.0183 L -2.8417,14.0275 L -2.8361,14.0358 L -2.815,14.0506 L -2.814,14.05115 L -2.7969,14.06059 L -2.7792,14.07059 L -2.7611,14.0803 L -2.7436,14.09029 L -2.7256,14.10059 L -2.7075,14.10999 L -2.6897,14.1206 L -2.6767,14.12749 L -2.6617,14.145 L -2.6303,14.17889 L -2.6144,14.19579 L -2.5994,14.2122 L -2.5817,14.22279 L -2.5636,14.2333 L -2.5458,14.24439 L -2.5278,14.255 L -2.51,14.26579 L -2.4925,14.2764 L -2.48745,14.27959 L -2.4728,14.28889 L -2.455,14.2847 L -2.4369,14.27969 L -2.42,14.27499 L -2.4022,14.27 L -2.3842,14.26579 L -2.3664,14.2608 L -2.3486,14.25639 L -2.3311,14.25169 L -2.3127,14.2467 L -2.2981,14.24249 L -2.28,14.2347 L -2.2625,14.2261 L -2.25105,14.22076 L -2.2447,14.2178 L -2.2269,14.2092 L -2.2094,14.2008 L -2.1917,14.19219 L -2.1742,14.18389 L -2.1564,14.1756 L -2.1386,14.16689 L -2.1211,14.15829 L -2.1075,14.1514 L -2.0813,14.16049 L -2.08128,14.1605 L -2.0719,14.16419 L -2.0539,14.17059 L -2.0364,14.1769 L -2.0186,14.1833 L -2.0067,14.1881 L -2.005,14.2055 L -2.0039,14.2225 L -2.0025,14.23969 L -2,14.25719 L -1.9986,14.27419 L -1.9972,14.29169 L -1.9958,14.30859 L -1.99361,14.3278 L -1.9936,14.3279 L -1.9919,14.34299 L -1.9906,14.3603 L -1.9892,14.3772 L -1.9839,14.4108 L -1.9808,14.475 L -1.9069,14.48859 L -1.7778,14.48139 L -1.76515,14.48379 L -1.7651,14.4838 L -1.6781,14.5006 L -1.5732,14.56719 L -1.3186,14.7289 L -1.2703,14.74069 L -1.15545,14.76888 L -1.1554,14.7689 L -1.0933,14.78419 L -1.0739,14.7775 L -1.03179,14.81458 L -0.9927,14.84901 L -0.96829,14.87221 L -0.95175,14.88494 L -0.94663,14.89075 L -0.93217,14.90424 L -0.92158,14.91601 L -0.92156,14.91603 L -0.88904,14.94772 L -0.85617,14.98141 L -0.84308,14.99236 L -0.83961,14.99792 L -0.83746,15 L -0.82374,15.01326 L -0.81273,15.02074 L -0.79659,15.0331 L -0.78745,15.03941 L -0.76306,15.05393 L -0.74614,15.06584 L -0.74569,15.06615 L -0.73917,15.07075 L -0.7192,15.08038 L -0.71542,15.08044 L -0.70149,15.08151 L -0.67832,15.08109 L -0.63743,15.08134 L -0.60236,15.08092 L -0.56723,15.08051 L -0.53011,15.08001 L -0.50697,15.08187 L -0.48733,15.08223 L -0.47673,15.08243 L -0.46207,15.08259 L -0.45567,15.08082 L -0.44205,15.06811 L -0.41998,15.03919 L -0.41563,15.03052 L -0.40362,15.01343 L -0.39766,15.0089 L -0.38866,15.00761 L -0.37642,15.01141 L -0.31703,15.04623 L -0.30174,15.05328 L -0.2698,15.07151 L -0.25379,15.07695 L -0.24763,15.07587 L -0.24526,15.0752 L -0.23175,15.07143 L -0.17954,15.05151 L -0.16795,15.0498 L -0.16366,15.04617 L -0.1487,15.03918 L -0.13543,15.03634 L -0.1321,15.03407 L -0.10981,15.02625 L -0.09865,15.02107 L -0.09368,15.01997 L -0.04295,15 L -0.03674,14.99754 L -0.00921,14.98518 L -0.00921,14.98518 L 0,14.98414 L 0.00214,14.9839 L 0.01325,14.98309 L 0.02839,14.98116 L 0.03832,14.98056 L 0.05038,14.97929 L 0.06221,14.97778 L 0.07871,14.97794 L 0.09457,14.97807 L 0.12125,14.98038 L 0.14181,14.98009 L 0.14888,14.98176 L 0.15461,14.98138 L 0.16424,14.98074 L 0.18288,14.98389 L 0.20055,14.98886 L 0.21166,14.98849 L 0.22935,14.98966 L 0.229,14.97808 L 0.23163,14.93875 L 0.23316,14.91589 L 0.2332,14.91527 L 0.23446,14.89639 L 0.23574,14.88607 z "
       style="fill:#ffffff;stroke:#000000;stroke-width:0.01"
       id="path7" />
  </g>
</svg>
